<svg xmlns="http://www.w3.org/2000/svg" viewBox="0 0 99.735 42.93"><defs><style>.a{opacity:0.189;}.b{fill:#fff;}</style></defs><g class="a"><path class="b" d="M168.6,45.811h3.456L170.3,40.1Z" transform="translate(-84.093 -20.013)"/><path class="b" d="M46,39.1H44.8v8.666H46a4.9,4.9,0,0,0,2.2-.351,2.219,2.219,0,0,0,1-1.2,7.452,7.452,0,0,0,.351-2.755c0-1.7-.25-2.855-.8-3.456A3.571,3.571,0,0,0,46,39.1Z" transform="translate(-22.308 -19.514)"/><path class="b" d="M94.626,11.6H9.869a7.154,7.154,0,0,1,2.6,5.61H9.368A5.038,5.038,0,0,0,4.609,12.1,4.991,4.991,0,0,0-.1,16.659v2.2H13.776a1.476,1.476,0,0,1,1.5,1.5V38.851a1.507,1.507,0,0,1-1.5,1.5H-.05V43.71a5.024,5.024,0,0,0,5.009,5.009H94.626a5.024,5.024,0,0,0,5.009-5.009V16.559A5.014,5.014,0,0,0,94.626,11.6ZM31.509,33.591a6.551,6.551,0,0,1-1.6,2.354A4.927,4.927,0,0,1,27.7,37.2a10.83,10.83,0,0,1-2.905.451H17.483V21.769H24.8a8.65,8.65,0,0,1,3.507.6,5.693,5.693,0,0,1,2.2,1.7,6.425,6.425,0,0,1,1.252,2.555,12.159,12.159,0,0,1,.4,3.056A11.047,11.047,0,0,1,31.509,33.591Zm19.837,4.058H47.338V25.526L44.232,37.649H40.576L37.52,25.526V37.649H33.512V21.769h6.462l2.5,9.668,2.455-9.668H51.4v15.88Zm20.288,2.805a12.5,12.5,0,0,1-12.423,0A12.07,12.07,0,0,1,54.652,35.9a12.5,12.5,0,0,1,0-12.423,12.07,12.07,0,0,1,4.558-4.558,12.5,12.5,0,0,1,12.423,0,12.07,12.07,0,0,1,4.558,4.558,12.406,12.406,0,0,1,1.653,6.212A12.271,12.271,0,0,1,76.192,35.9,12.07,12.07,0,0,1,71.633,40.454Zm18.084-2.805-.8-2.6h-5.56l-.751,2.6H77.594l5.961-15.88h5.36l5.961,15.88Z" transform="translate(0.1 -5.789)"/><path class="b" d="M120.669,27.6A10.091,10.091,0,0,0,110.6,37.669a10.069,10.069,0,1,0,17.182-7.113A9.762,9.762,0,0,0,120.669,27.6Zm4.558,15.429a6.212,6.212,0,0,1-4.458,1.653,6.6,6.6,0,0,1-4.909-1.954,7.08,7.08,0,0,1-1.9-5.11,6.719,6.719,0,0,1,1.954-4.959,6.57,6.57,0,0,1,4.859-1.954,6.135,6.135,0,0,1,3.957,1.252,5.641,5.641,0,0,1,2.054,3.256l-3.206.5a3.331,3.331,0,0,0-1.052-1.954,3.013,3.013,0,0,0-1.9-.651,2.636,2.636,0,0,0-2.154,1.1,5.248,5.248,0,0,0-.852,3.406,6.662,6.662,0,0,0,.6,3.306,2.725,2.725,0,0,0,2.455,1.453,2.63,2.63,0,0,0,1.8-.751,4.506,4.506,0,0,0,1.152-2.4l3.356.8A8.217,8.217,0,0,1,125.227,43.029Z" transform="translate(-55.147 -13.774)"/><g transform="translate(4.308)"><path class="b" d="M8.5.1h2.2a1.462,1.462,0,0,1,1.1.351,1.291,1.291,0,0,1,.351,1,1.317,1.317,0,0,1-.4,1,1.646,1.646,0,0,1-1.2.351H9.8v1.6H8.5ZM9.853,1.953H10.2a.806.806,0,0,0,.551-.15.455.455,0,0,0,.15-.351.455.455,0,0,0-.15-.351.665.665,0,0,0-.5-.15h-.4Z" transform="translate(-8.5 -0.05)"/><path class="b" d="M17.4,4.408V.1h2.2a4.611,4.611,0,0,1,.952.1.689.689,0,0,1,.5.4,1.448,1.448,0,0,1,.2.7,1.068,1.068,0,0,1-.15.6,1.525,1.525,0,0,1-.4.4,2.329,2.329,0,0,1-.451.15,2.442,2.442,0,0,1,.351.15,1.37,1.37,0,0,1,.2.25c.1.1.15.2.2.25l.651,1.252h-1.5l-.7-1.3c-.1-.15-.15-.3-.25-.351a.724.724,0,0,0-.351-.1H18.7V4.358H17.4Zm1.3-2.555h.551A1.128,1.128,0,0,0,19.6,1.8c.1,0,.15-.05.2-.15s.1-.15.1-.25a.3.3,0,0,0-.15-.3,1.078,1.078,0,0,0-.5-.1H18.7Z" transform="translate(-12.942 -0.05)"/><path class="b" d="M26.3,2.2A2.234,2.234,0,0,1,26.9.551,2.09,2.09,0,0,1,28.5,0a2.234,2.234,0,0,1,1.653.6,2.115,2.115,0,0,1,.6,1.6,3.093,3.093,0,0,1-.25,1.252,1.46,1.46,0,0,1-.751.7,3.011,3.011,0,0,1-2.4,0,1.872,1.872,0,0,1-.751-.651A2.386,2.386,0,0,1,26.3,2.2Zm1.3.05a1.548,1.548,0,0,0,.25.952.808.808,0,0,0,.651.3.744.744,0,0,0,.651-.3,1.614,1.614,0,0,0,.25-1,1.487,1.487,0,0,0-.25-.9A.744.744,0,0,0,28.5,1a.808.808,0,0,0-.651.3A1.548,1.548,0,0,0,27.6,2.254Z" transform="translate(-17.383 0)"/><path class="b" d="M35.8.1h4.058V1.152H38.505V4.408H37.153V1.2H35.8Z" transform="translate(-22.125 -0.05)"/><path class="b" d="M45.3.1h3.557v.952H46.6v.7h2.054v.9H46.6v.852h2.3v.952H45.3Z" transform="translate(-26.866 -0.05)"/><path class="b" d="M56.806,2.6l1.152.351a2.4,2.4,0,0,1-.351.8,1.627,1.627,0,0,1-.651.5,2.446,2.446,0,0,1-.952.2,2.64,2.64,0,0,1-1.152-.2,1.676,1.676,0,0,1-.751-.7,2.635,2.635,0,0,1-.3-1.3A2.434,2.434,0,0,1,54.351.6a2.5,2.5,0,0,1,2.905-.25,1.837,1.837,0,0,1,.7,1l-1.152.25a.816.816,0,0,0-.15-.3.6.6,0,0,0-.25-.25A.977.977,0,0,0,56,1a.758.758,0,0,0-.7.351,1.768,1.768,0,0,0-.2.852,1.664,1.664,0,0,0,.2,1,.674.674,0,0,0,.6.25.8.8,0,0,0,.6-.2A1.132,1.132,0,0,0,56.806,2.6Z" transform="translate(-31.108)"/><path class="b" d="M63,.1h4.007V1.152H65.655V4.408H64.3V1.2H63Z" transform="translate(-35.699 -0.05)"/><path class="b" d="M72.4.1h3.557v.952H73.7v.7h2.054v.9H73.7v.852h2.3v.952H72.4Z" transform="translate(-40.391 -0.05)"/><path class="b" d="M81.3.1h1.954a2.525,2.525,0,0,1,.952.15,1.473,1.473,0,0,1,.6.5,3.061,3.061,0,0,1,.351.7,2.343,2.343,0,0,1,.1.852,2.927,2.927,0,0,1-.15,1.052,1.368,1.368,0,0,1-.451.6,1.876,1.876,0,0,1-.6.351,2.343,2.343,0,0,1-.8.1H81.3Zm1.3,1V3.456h.351a1.635,1.635,0,0,0,.6-.1c.15-.05.2-.15.3-.3a1.5,1.5,0,0,0,.1-.751,1.583,1.583,0,0,0-.2-.952A.862.862,0,0,0,83,1.1Z" transform="translate(-44.832 -0.05)"/><path class="b" d="M98.306,2.3l.952.2a3.449,3.449,0,0,1-.15.4,1.255,1.255,0,0,1-.2.351l.451.3a.692.692,0,0,0,.2.15l-.651.751c-.1-.05-.25-.15-.351-.2s-.25-.15-.351-.2a1.693,1.693,0,0,1-.6.3,3.012,3.012,0,0,1-1,.15,2.015,2.015,0,0,1-1.3-.351,1.058,1.058,0,0,1-.4-.852,1.2,1.2,0,0,1,.25-.7,2.044,2.044,0,0,1,.8-.551,1.875,1.875,0,0,1-.3-.5,1.463,1.463,0,0,1-.1-.451A.9.9,0,0,1,95.9.351,1.553,1.553,0,0,1,96.954,0a1.467,1.467,0,0,1,1.052.3.946.946,0,0,1,.351.651.944.944,0,0,1-.1.4,1.522,1.522,0,0,1-.25.351c-.1.1-.25.2-.5.4.2.2.451.4.651.6A3.452,3.452,0,0,1,98.306,2.3Zm-1.8.25a2.179,2.179,0,0,0-.351.3.276.276,0,0,0-.1.25.517.517,0,0,0,.2.4.605.605,0,0,0,.5.15,1.492,1.492,0,0,0,.7-.25A6.136,6.136,0,0,1,96.5,2.555Zm.4-1c.15-.1.25-.2.351-.25A.357.357,0,0,0,97.4,1c0-.1-.05-.15-.1-.25s-.15-.1-.3-.1a.712.712,0,0,0-.3.1c-.1.05-.1.15-.1.25A1.192,1.192,0,0,0,96.9,1.553Z" transform="translate(-51.62)"/><path class="b" d="M109.8.1h1.753l.651,2.6.651-2.6h1.753V4.408h-1.1V1.152l-.852,3.306h-1L110.9,1.152V4.458h-1.1Z" transform="translate(-59.056 -0.05)"/><path class="b" d="M121,2.2a2.234,2.234,0,0,1,.6-1.653A2.09,2.09,0,0,1,123.2,0a2.234,2.234,0,0,1,1.653.6,2.115,2.115,0,0,1,.6,1.6,3.093,3.093,0,0,1-.25,1.252,1.564,1.564,0,0,1-.751.751,2.25,2.25,0,0,1-1.2.25,2.683,2.683,0,0,1-1.2-.25,2.008,2.008,0,0,1-.751-.7A2.386,2.386,0,0,1,121,2.2Zm1.353.05a1.548,1.548,0,0,0,.25.952.808.808,0,0,0,.651.3.744.744,0,0,0,.651-.3,1.614,1.614,0,0,0,.25-1,1.487,1.487,0,0,0-.25-.9.841.841,0,0,0-.7-.3.808.808,0,0,0-.651.3A1.583,1.583,0,0,0,122.352,2.254Z" transform="translate(-64.645 0)"/><path class="b" d="M131.5.1h1.252l1.6,2.4V.1h1.252V4.408h-1.252l-1.6-2.354V4.408H131.5Z" transform="translate(-69.886 -0.05)"/><path class="b" d="M141.8.1h1.353V4.408H141.8Z" transform="translate(-75.026 -0.05)"/><path class="b" d="M145.9.1h4.058V1.152h-1.353V4.408h-1.352V1.2H145.9V.1Z" transform="translate(-77.072 -0.05)"/><path class="b" d="M154.6,2.2a2.234,2.234,0,0,1,.6-1.653A2.09,2.09,0,0,1,156.8,0a2.234,2.234,0,0,1,1.653.6,2.115,2.115,0,0,1,.6,1.6,3.094,3.094,0,0,1-.25,1.252,1.564,1.564,0,0,1-.751.751,2.25,2.25,0,0,1-1.2.25,2.683,2.683,0,0,1-1.2-.25,1.807,1.807,0,0,1-.751-.751A2.317,2.317,0,0,1,154.6,2.2Zm1.3.05a1.548,1.548,0,0,0,.25.952.808.808,0,0,0,.651.3.744.744,0,0,0,.651-.3,1.613,1.613,0,0,0,.25-1,1.487,1.487,0,0,0-.25-.9.856.856,0,0,0-1.3,0A1.548,1.548,0,0,0,155.9,2.254Z" transform="translate(-81.414 0)"/><path class="b" d="M165.1,4.408V.1h2.2a4.61,4.61,0,0,1,.952.1.689.689,0,0,1,.5.4,1.448,1.448,0,0,1,.2.7,1.068,1.068,0,0,1-.15.6,1.524,1.524,0,0,1-.4.4,2.328,2.328,0,0,1-.451.15,2.443,2.443,0,0,1,.351.15,1.371,1.371,0,0,1,.2.25c.1.1.15.2.2.25l.651,1.252h-1.5l-.7-1.3c-.1-.15-.15-.3-.25-.351a.724.724,0,0,0-.351-.1h-.1V4.358H165.1Zm1.3-2.555h.551a1.128,1.128,0,0,0,.351-.05c.1,0,.15-.05.2-.15s.1-.15.1-.25a.3.3,0,0,0-.15-.3,1.078,1.078,0,0,0-.5-.1h-.6v.852Z" transform="translate(-86.654 -0.05)"/><path class="b" d="M174.5.1h3.557v.952H175.8v.7h2.054v.9H175.8v.852h2.3v.952H174.5Z" transform="translate(-91.346 -0.05)"/><path class="b" d="M183.4.1h1.954a2.525,2.525,0,0,1,.952.15,1.368,1.368,0,0,1,.6.451,3.06,3.06,0,0,1,.351.7,2.343,2.343,0,0,1,.1.852,2.927,2.927,0,0,1-.15,1.052,1.906,1.906,0,0,1-.451.651,1.26,1.26,0,0,1-.6.351,2.343,2.343,0,0,1-.8.1H183.4Zm1.3,1V3.456h.351a1.635,1.635,0,0,0,.6-.1c.15-.05.2-.15.3-.3a1.5,1.5,0,0,0,.1-.751,1.583,1.583,0,0,0-.2-.952.862.862,0,0,0-.751-.25Z" transform="translate(-95.787 -0.05)"/></g><path class="b" d="M9.312,47.471,7.058,41.41a2.773,2.773,0,0,0,1.5-2.5,2.805,2.805,0,1,0-3.807,2.6L2.9,47.471Z" transform="translate(-1.397 -18.016)"/></g></svg>