<svg xmlns="http://www.w3.org/2000/svg" viewBox="0 0 40.092 40.092"><defs><style>.a{fill:#fff;}</style></defs><path class="a" d="M36.751,0H3.341A3.345,3.345,0,0,0,0,3.341V26.728a3.345,3.345,0,0,0,3.341,3.341H14.568l-1.094,6.014H10.849a2,2,0,1,0,0,4.009H29.242a2,2,0,1,0,0-4.009H26.618l-1.094-6.014H36.751a3.345,3.345,0,0,0,3.341-3.341V3.341A3.345,3.345,0,0,0,36.751,0ZM26.06,37.419h3.183a.664.664,0,0,1,.6.37.668.668,0,0,1-.6.967H10.849a.668.668,0,1,1,0-1.336h8.529a.668.668,0,1,0,0-1.336H14.833l1.094-6.014h8.239l1.094,6.014H23.387a.668.668,0,1,0,0,1.336Zm12.7-10.691a2.007,2.007,0,0,1-2,2H3.341a2.007,2.007,0,0,1-2-2v-2H38.756Zm0-3.341H1.336V3.341a2.007,2.007,0,0,1,2-2h33.41a2.007,2.007,0,0,1,2,2Z"/></svg>