<svg xmlns="http://www.w3.org/2000/svg" viewBox="0 0 129.949 19.521"><defs><style>.a{opacity:0.192;}.b{fill:#fff;}</style></defs><g class="a"><path class="b" d="M-292.093,293.007c0,2.025.883,3.167,2.492,3.167,1.506,0,2.648-1.35,2.648-3.271,0-1.817-1.038-3.167-2.44-3.167-1.661.052-2.7,1.3-2.7,3.271m5.088,3.842a4.228,4.228,0,0,1-3.427,1.661c-2.648,0-4.569-2.284-4.569-5.555s1.973-5.555,4.776-5.555a5.026,5.026,0,0,1,3.271,1.454V287.66h3.842v2.181h-1.038v8.722c0,2.7-2.025,4.309-5.451,4.309a5.9,5.9,0,0,1-3.894-1.142,3.72,3.72,0,0,1-1.35-2.492h2.752a2.245,2.245,0,0,0,2.44,1.506c1.609,0,2.7-.831,2.7-2.129C-287,298.614-287,296.849-287,296.849Z" transform="translate(295 -283.35)"/><path class="b" d="M-263.78,293.534c-2.648.26-4.413.467-4.413,2.077,0,.935.727,1.558,1.869,1.558a2.472,2.472,0,0,0,2.544-2.492Zm2.648,3.167h.986v2.181h-3.53v-1.35a4.168,4.168,0,0,1-3.427,1.557c-2.284,0-4-1.506-4-3.53,0-3.323,3.738-3.686,7.372-4.05,0-1.765-.467-2.181-2.077-2.181a1.845,1.845,0,0,0-2.025,1.713l-2.752-.1c.156-2.284,1.973-3.738,4.673-3.738,3.115,0,4.828,1.4,4.828,4l-.052,5.5Z" transform="translate(283.508 -283.254)"/><path class="b" d="M-244.858,289.009a3.855,3.855,0,0,1,3.271-1.609,2.736,2.736,0,0,1,2.7,1.765,4.681,4.681,0,0,1,3.427-1.765,2.987,2.987,0,0,1,3.063,3.219v6.23h1.038v2.181H-235.2v-7.684c0-.986-.467-1.609-1.194-1.609-1.142,0-2.232,1.506-2.232,3.063v3.946h1.09v2.181h-3.894V291.45c0-1.142-.363-1.713-1.194-1.713-1.246,0-2.336,1.506-2.284,3.323v3.686h1.09v2.181h-4.828v-2.181h.935V289.84h-.986V287.66h3.738v1.35h.1Z" transform="translate(272.738 -283.35)"/><path class="b" d="M-210.306,289.62c0,2.336.935,3.582,2.752,3.582,1.558,0,2.544-1.4,2.544-3.634s-.986-3.634-2.544-3.634c-1.765,0-2.752,1.35-2.752,3.686m-3.79-10.02h3.842v5.555a4.293,4.293,0,0,1,3.219-1.609c2.855,0,4.88,2.44,4.88,5.867,0,3.634-1.921,6.074-4.724,6.074a4.58,4.58,0,0,1-3.478-1.506v1.246H-214.2v-2.18h1.194V281.781h-1.09V279.6Z" transform="translate(256.149 -279.6)"/><path class="b" d="M-189.7,279.6h3.842v13.447h1.09v2.18H-189.7v-2.18h1.09V281.781h-1.09Z" transform="translate(244.369 -279.6)"/><path class="b" d="M-171.557,291.869a2.278,2.278,0,0,0-2.388-2.232,2.635,2.635,0,0,0-2.544,2.232Zm2.907,3.375a5.09,5.09,0,0,1-5.347,4c-3.167,0-5.5-2.492-5.5-5.971,0-3.427,2.336-5.971,5.555-5.971a5.068,5.068,0,0,1,4.361,2.336,7.835,7.835,0,0,1,1.142,4.257h-8.2c.26,2.959,2.181,3.115,2.752,3.115a2.307,2.307,0,0,0,2.336-1.713l2.907-.052Z" transform="translate(239.465 -283.302)"/><path class="b" d="M-149.372,293.119l-.986.156c-2.077.312-2.959.623-3.53,1.194a1.583,1.583,0,0,0-.467,1.09,1.962,1.962,0,0,0,1.973,1.921,3.092,3.092,0,0,0,3.011-2.8v-1.558Zm0,4.257a5.187,5.187,0,0,1-3.842,1.765,3.458,3.458,0,0,1-3.686-3.427,3.384,3.384,0,0,1,.831-2.232c.883-.883,2.129-1.3,5.14-1.609l1.506-.156v-.727c0-1.3-.831-2.025-2.388-2.025a2.019,2.019,0,0,0-2.336,1.869h-2.336a3.7,3.7,0,0,1,1.09-2.44,5.473,5.473,0,0,1,3.738-1.194c2.8,0,4.465,1.4,4.465,3.79v6.074h1.35v1.817h-3.582l.052-1.506Z" transform="translate(228.598 -283.254)"/><path class="b" d="M-135.9,287.8h4.361v1.817h-1.246l1.869,7.684,2.181-9.5h2.129l2.181,9.5,1.869-7.684H-123.8V287.8h4.309v1.817h-1.142l-2.6,9.553h-2.388l-2.077-8.515-2.025,8.515h-2.44l-2.648-9.553h-1.09Z" transform="translate(218.501 -283.543)"/><path class="b" d="M-95.924,293.119l-.986.156c-2.077.312-2.959.623-3.53,1.194a1.583,1.583,0,0,0-.467,1.09,1.962,1.962,0,0,0,1.973,1.921,3.092,3.092,0,0,0,3.011-2.8v-1.558Zm0,4.257a5.161,5.161,0,0,1-3.79,1.765,3.458,3.458,0,0,1-3.686-3.427,3.384,3.384,0,0,1,.831-2.232c.883-.883,2.129-1.3,5.14-1.609l1.506-.156v-.727c0-1.3-.831-2.025-2.388-2.025a2.019,2.019,0,0,0-2.336,1.869h-2.336a3.7,3.7,0,0,1,1.09-2.44,5.473,5.473,0,0,1,3.738-1.194c2.8,0,4.465,1.4,4.465,3.79v6.074h1.35v1.817h-3.582Z" transform="translate(202.874 -283.254)"/><path class="b" d="M-77.122,290.1c.623-1.35,1.3-2.8,3.323-2.8a4.245,4.245,0,0,1,1.09.156v2.129a5.921,5.921,0,0,0-1.09-.156c-2.544,0-3.271,2.544-3.271,3.375v4.309h1.3v1.817H-80.6v-1.817h1.3v-7.788h-1.3V287.56h3.478V290.1Z" transform="translate(191.911 -283.302)"/><path class="b" d="M-56.957,292.128c-.1-1.869-.986-2.907-2.544-2.907-2.336,0-3.011,2.6-3.011,2.907Zm2.336,3.323a5.177,5.177,0,0,1-4.88,3.738c-3.219,0-5.4-2.44-5.4-6.074a5.479,5.479,0,0,1,5.451-5.815c1.817,0,5.036,1.038,5.036,6.386h-8.2c.1,2.544,1.713,3.582,3.219,3.582A2.267,2.267,0,0,0-57.06,295.4h2.44Z" transform="translate(184.362 -283.302)"/></g></svg>