<svg xmlns="http://www.w3.org/2000/svg" viewBox="0 0 38.593 42.93"><defs><style>.a{opacity:0.192;}.b{fill:#fff;}</style></defs><g class="a"><g transform="translate(0 0)"><path class="b" d="M-342.393,296.292a4.411,4.411,0,0,0-.513-.192h-12.046a1.45,1.45,0,0,0-1.474,1.474,1.45,1.45,0,0,0,1.474,1.474h4.485a.276.276,0,0,1,.256.256c0,.064-.064.128-.128.192a19.351,19.351,0,0,1-9.163,2.114c-.833,0-1.666-.064-2.5-.128v3.4c.7.064,1.41.064,2.114.064a24.468,24.468,0,0,0,12.559-3.14h0c.064,0,.064-.064.128-.064a.3.3,0,0,1,.32.32v.064l-.7,1.858a1.876,1.876,0,0,0,1.153,2.435,2.276,2.276,0,0,0,.641.128A1.93,1.93,0,0,0-344,305.327l2.5-6.792A1.708,1.708,0,0,0-342.393,296.292Z" transform="translate(379.941 -275.724)"/><path class="b" d="M-359.365,275.314a19.623,19.623,0,0,1,9.227,2.179s1.6,1.153,2.307.064c.833-1.282-.833-2.05-.833-2.05a25.829,25.829,0,0,0-11.021-2.307c-.7,0-1.41,0-2.115.064v2.179A15.113,15.113,0,0,1-359.365,275.314Z" transform="translate(379.869 -267.497)"/><path class="b" d="M-387.373,264.3A2.639,2.639,0,0,0-390,266.927v28.641a2.6,2.6,0,0,0,2.627,2.627H-372v-4.742c-9.227-.641-16.4-5.639-16.4-11.726S-381.222,270.707-372,270v-5.7h-15.378Z" transform="translate(390 -264.3)"/><path class="b" d="M-380.3,285.606c0,4.485,5.062,8.2,11.79,8.906V276.7C-375.174,277.4-380.3,281.121-380.3,285.606Z" transform="translate(386.515 -268.755)"/></g><g transform="translate(0 36.715)"><path class="b" d="M-383.977,324.776a2.983,2.983,0,0,1-3.011,3.076,2.763,2.763,0,0,1-2.243-1.025,3.069,3.069,0,0,1-.769-2.114,3.051,3.051,0,0,1,.9-2.178,2.9,2.9,0,0,1,2.179-.833,2.711,2.711,0,0,1,2.627,1.6h-1.089a1.944,1.944,0,0,0-1.6-.769,1.855,1.855,0,0,0-1.474.641,2.224,2.224,0,0,0-.641,1.6,2.233,2.233,0,0,0,.577,1.6,1.988,1.988,0,0,0,1.538.641,2.165,2.165,0,0,0,2.05-1.41h-2.691v-.833Z" transform="translate(390 -321.636)"/><path class="b" d="M-379.6,327.759h-.9l2.307-5.959h.833l2.307,5.959h-.961l-.641-1.73h-2.307Zm1.794-4.806-.833,2.243h1.666Z" transform="translate(386.587 -321.672)"/><path class="b" d="M-371.5,327.759V321.8h1.282l1.73,4.613,1.73-4.613h1.281v5.959h-.833l.064-5.126-1.922,5.126h-.641l-1.922-5.126.064,5.126Z" transform="translate(383.354 -321.672)"/><path class="b" d="M-357.888,327.815a2.775,2.775,0,0,1-2.179-.961,3,3,0,0,1-.833-2.178,3.051,3.051,0,0,1,.9-2.179,3.051,3.051,0,0,1,2.179-.9,3,3,0,0,1,2.947,2.371h-1.6a1.536,1.536,0,0,0-1.41-.9,1.573,1.573,0,0,0-1.6,1.538,1.59,1.59,0,0,0,1.538,1.666,1.569,1.569,0,0,0,1.346-.833h1.6A2.88,2.88,0,0,1-357.888,327.815Z" transform="translate(379.546 -321.6)"/><path class="b" d="M-350.2,327.759h-1.6l2.307-5.959h1.217l2.307,5.959h-1.6l-.32-.833h-1.986Zm1.281-3.973-.577,1.922h1.153Z" transform="translate(376.276 -321.672)"/><path class="b" d="M-342.7,327.759V321.8h1.986a2.521,2.521,0,0,1,1.474.32,1.949,1.949,0,0,1,.833,1.666,1.891,1.891,0,0,1-1.346,1.922l1.474,2.05h-1.794l-1.153-1.922v1.922Zm1.794-3.2c.7,0,1.089-.192,1.089-.7s-.32-.7-.961-.7h-.384v1.41Z" transform="translate(373.007 -321.672)"/><path class="b" d="M-334.8,327.759V321.8h3.2v1.281h-1.794v.961h1.794v1.346h-1.794v1.025h1.794v1.281h-3.2Z" transform="translate(370.169 -321.672)"/></g></g></svg>