<svg xmlns="http://www.w3.org/2000/svg" viewBox="0 0 82 15.295"><defs><style>.a{fill:#fff;}</style></defs><path class="a" d="M11.336.758V11.316L.032,0,0,14.759H1.584V3.878L13,15.3V.758Z"/><path class="a" d="M45.536.82A6.9,6.9,0,0,1,52.764,7.9a7.174,7.174,0,1,1-14.344.113A6.864,6.864,0,0,1,45.536.82Zm0,1.536a5.43,5.43,0,0,0-5.475,5.793A5.533,5.533,0,1,0,51.123,8.04a5.435,5.435,0,0,0-5.616-5.68Z" transform="translate(-22.931 -0.489)"/><g transform="translate(41.149 0.706)"><path class="a" d="M109.294,5.193l-5.442,10.631H102.07L109.29,1.75l7.228,14.074h-1.782Z" transform="translate(-102.07 -1.75)"/></g><g transform="translate(29.889 0.706)"><path class="a" d="M81.364,12.381,75.922,1.75H74.14l7.22,14.074L88.589,1.75H86.807Z" transform="translate(-74.14 -1.75)"/></g><path class="a" d="M152.153,1.462,129.42,1.43c5.519,10.978,7.087,14.2,13.63,14.239h0c-.133.069,7.446,0,9.474,0a6.666,6.666,0,0,0,6.72-6.987,7.168,7.168,0,0,0-7.091-7.22ZM142.53,5.752c-.468,1.395-.951,2.79-1.431,4.181-.2.572-.4,1.145-.6,1.709a.718.718,0,0,1-1.395-.032c-.234-.637-.443-1.282-.665-1.923l-1.3-3.79a1.971,1.971,0,0,1-.085-.306.581.581,0,0,1,.4-.726h0a.6.6,0,0,1,.754.379v.024c.093.238.169.48.246.722l1.383,4.217c.214-.673,1.209-3.8,1.5-4.769.081-.258.181-.508.488-.572C142.389,4.744,142.728,5.167,142.53,5.752Zm4.249,3.628h-1.717v2.165a.617.617,0,1,1-1.23,0v-5.9c0-.633.141-.778.762-.774.774,0,1.552-.02,2.326.028A2.141,2.141,0,0,1,149,7.09v.141A2.177,2.177,0,0,1,146.8,9.38Zm8.8,1.871c0,.556-.125.806-.484.891a.806.806,0,0,1-.976-.472c-.669-1.109-2.479-4.108-2.77-4.572v4.35c0,.4-.125.609-.427.693a.548.548,0,0,1-.714-.464.976.976,0,0,1,0-.125V5.594a.665.665,0,0,1,.447-.71.766.766,0,0,1,.875.3,4.735,4.735,0,0,1,.331.508c.782,1.322,2.548,4.225,2.568,4.217V5.7a2.524,2.524,0,0,1,0-.351.536.536,0,0,1,.556-.512h.06a.52.52,0,0,1,.548.544c0,.552,0,4.459,0,5.862Z" transform="translate(-77.245 -0.854)"/><path class="a" d="M170.088,12.89c-.593-.06-1.209,0-1.818,0v2.177c.617,0,1.209.04,1.8,0a1,1,0,0,0,.883-1.072.976.976,0,0,0-.83-1.1Z" transform="translate(-100.433 -7.678)"/></svg>