<svg xmlns="http://www.w3.org/2000/svg" viewBox="0 0 41.012 41"><defs><style>.a{fill:#ffda93;}</style></defs><g transform="translate(-2.16 -2.178)"><path class="a" d="M24.476,35.68a15.811,15.811,0,0,1-2.33.487A20.445,20.445,0,0,0,24.5,33.9a.685.685,0,0,0-1.028-.9,20.274,20.274,0,0,1-2.913,2.687V27.456a20.081,20.081,0,0,1,3.927.507.685.685,0,0,0,.315-1.33,21.247,21.247,0,0,0-4.242-.548V20.561h7.8c0,.425-.041.85-.082,1.275a.685.685,0,0,0,.61.754h.069a.685.685,0,0,0,.685-.617c.041-.473.075-.946.089-1.412h6.593a.685.685,0,1,0,1.371,0v-.685A17.765,17.765,0,1,0,24.86,37.01a.692.692,0,1,0-.384-1.33Zm-5.264,0a19.807,19.807,0,0,1-5.819-7.148,20.2,20.2,0,0,1,5.791-1.076Zm0-9.6a21.665,21.665,0,0,0-6.374,1.186,19.821,19.821,0,0,1-1.371-6.682h7.717ZM3.49,20.561h6.586a21.157,21.157,0,0,0,1.487,7.176A20.685,20.685,0,0,0,7.17,30.245a16.367,16.367,0,0,1-3.68-9.684ZM32.433,9.307a16.326,16.326,0,0,1,3.886,9.883h-6.58a21.185,21.185,0,0,0-1.563-7.265,20.561,20.561,0,0,0,4.256-2.618Zm-4.8,1.371a21.116,21.116,0,0,0-5.483-7.032,16.38,16.38,0,0,1,9.369,4.633,18.978,18.978,0,0,1-3.9,2.385Zm-8.451,3.029V19.19H11.447a19.917,19.917,0,0,1,1.426-6.765,19.876,19.876,0,0,0,6.312,1.282Zm-5.778-2.529a19.876,19.876,0,0,1,5.778-7.066v8.224a18.505,18.505,0,0,1-5.75-1.138Zm7.148-7.066a19.876,19.876,0,0,1,5.771,7.073,18.45,18.45,0,0,1-5.771,1.151Zm-8.389,6.552A19.19,19.19,0,0,1,8.3,8.279a16.353,16.353,0,0,1,9.335-4.64,21.178,21.178,0,0,0-5.469,7.025Zm-.521,1.261a21.246,21.246,0,0,0-1.569,7.265H3.49A16.367,16.367,0,0,1,7.355,9.307a20.561,20.561,0,0,0,4.29,2.618Zm8.91,1.782a19.876,19.876,0,0,0,6.333-1.275,19.835,19.835,0,0,1,1.46,6.758H20.555ZM8.089,31.3a19.444,19.444,0,0,1,4.023-2.282,21.246,21.246,0,0,0,5.524,7.148A16.387,16.387,0,0,1,8.089,31.3Z" transform="translate(0)"/><path class="a" d="M52.818,39V37.551a7.251,7.251,0,1,0-14.5,0V39A2.056,2.056,0,0,0,37,40.889V49.97a2.056,2.056,0,0,0,2.056,2.056H52.078a2.056,2.056,0,0,0,2.056-2.056V40.889A2.056,2.056,0,0,0,52.818,39Zm-7.251-7.34a5.887,5.887,0,0,1,5.88,5.887v1.282H50.022V37.209a4.455,4.455,0,0,0-8.91,0v1.624H39.687V37.551a5.887,5.887,0,0,1,5.88-5.887Zm3.084,7.169H42.483V37.209a3.084,3.084,0,0,1,6.168,0ZM52.764,49.97a.685.685,0,0,1-.685.685H39.056a.685.685,0,0,1-.685-.685V40.889a.685.685,0,0,1,.685-.685H52.078a.685.685,0,0,1,.685.685Z" transform="translate(-10.962 -8.848)"/></g></svg>