<svg xmlns="http://www.w3.org/2000/svg" viewBox="0 0 40.092 40.092"><defs><style>.a{fill:#fff;}</style></defs><path class="a" d="M36.751,0H3.341A3.345,3.345,0,0,0,0,3.341V26.728a3.345,3.345,0,0,0,3.341,3.341H14.568l-1.094,6.014H10.849a2,2,0,1,0,0,4.009H29.242a2,2,0,1,0,0-4.009H26.618l-1.094-6.014H36.751a3.345,3.345,0,0,0,3.341-3.341V3.341A3.345,3.345,0,0,0,36.751,0ZM26.06,37.419h3.183a.664.664,0,0,1,.6.37.668.668,0,0,1-.6.967H10.849a.668.668,0,1,1,0-1.336h8.529a.668.668,0,1,0,0-1.336H14.833l1.094-6.014h8.239l1.094,6.014H23.387a.668.668,0,1,0,0,1.336Zm12.7-10.691a2.007,2.007,0,0,1-2,2H3.341a2.007,2.007,0,0,1-2-2v-2H38.756Zm0-3.341H1.336V3.341a2.007,2.007,0,0,1,2-2h33.41a2.007,2.007,0,0,1,2,2Z"/><g transform="translate(18.041 26.06)"><path class="a" d="M219.341,312h-2.673a.668.668,0,1,0,0,1.336h2.673a.668.668,0,0,0,0-1.336Z" transform="translate(-216 -312)"/></g><g transform="translate(11.381 2.672)"><path class="a" d="M153.2,35.386l-8.018-3.341a.661.661,0,0,0-.516,0l-8,3.366a.669.669,0,0,0-.409.613c0,.38,0,9.351,4.022,13.4a6.343,6.343,0,0,0,4.643,1.951c8.473,0,8.682-14.737,8.687-15.363A.668.668,0,0,0,153.2,35.386Zm-8.276,14.649a4.988,4.988,0,0,1-3.694-1.556c-3.163-3.178-3.574-10.192-3.626-12.012l7.322-3.082,7.336,3.056C152.164,38.835,151.349,50.035,144.928,50.035Z" transform="translate(-136.263 -31.993)"/></g><g transform="translate(14.7 7.35)"><path class="a" d="M181.346,88a5.346,5.346,0,1,0,5.346,5.346A5.352,5.352,0,0,0,181.346,88Zm0,9.355a4.009,4.009,0,1,1,4.009-4.009A4.013,4.013,0,0,1,181.346,97.355Z" transform="translate(-176 -88)"/></g><g transform="translate(18.14 10.858)"><path class="a" d="M221.6,130.16a.669.669,0,0,0-.942.071l-1.65,1.92-.655-.748a.668.668,0,0,0-1.006.879l1.161,1.329a.671.671,0,0,0,.5.229h0a.668.668,0,0,0,.5-.233l2.152-2.506A.669.669,0,0,0,221.6,130.16Z" transform="translate(-217.177 -129.999)"/></g><g transform="translate(4.009 16.037)"><ellipse class="a" cx="0.668" cy="0.668" rx="0.668" ry="0.668"/></g><g transform="translate(6.682 16.037)"><ellipse class="a" cx="0.668" cy="0.668" rx="0.668" ry="0.668"/></g><g transform="translate(9.355 16.037)"><ellipse class="a" cx="0.668" cy="0.668" rx="0.668" ry="0.668"/></g><g transform="translate(29.401 16.037)"><ellipse class="a" cx="0.668" cy="0.668" rx="0.668" ry="0.668"/></g><g transform="translate(32.074 16.037)"><ellipse class="a" cx="0.668" cy="0.668" rx="0.668" ry="0.668"/></g><g transform="translate(34.746 16.037)"><ellipse class="a" cx="0.668" cy="0.668" rx="0.668" ry="0.668"/></g></svg>