<svg xmlns="http://www.w3.org/2000/svg" viewBox="0 0 38.342 43.487"><defs><style>.a{fill:#fff;stroke:#0f399a;}</style></defs><g transform="translate(0.5 0.5)"><g transform="translate(0 7.551)"><path class="a" d="M67.388,109.754a3.732,3.732,0,0,0-2.781-6.224H57.36a24.135,24.135,0,0,0,1.024-6.307V95.979A4.985,4.985,0,0,0,53.405,91H52.16a1.244,1.244,0,0,0-1.207.943l-.678,2.713c-.95,3.8-3.967,7.99-7.088,8.752a3.739,3.739,0,0,0-3.474-2.367H32.245A1.245,1.245,0,0,0,31,102.286v22.405a1.245,1.245,0,0,0,1.245,1.245h7.468a3.738,3.738,0,0,0,3.371-2.128l4.277,1.426a13.662,13.662,0,0,0,4.33.7H62.118a3.735,3.735,0,0,0,3.472-5.11,3.732,3.732,0,0,0,1.8-6.093,3.727,3.727,0,0,0,0-4.979ZM40.958,122.2a1.246,1.246,0,0,1-1.245,1.245H33.489V103.53h6.224a1.246,1.246,0,0,1,1.245,1.245ZM62.118,111h2.489a1.245,1.245,0,1,1,0,2.489H62.118a1.245,1.245,0,1,0,0,2.489h2.489a1.245,1.245,0,1,1,0,2.489H62.118a1.245,1.245,0,1,0,0,2.489,1.245,1.245,0,1,1,0,2.489H51.691a11.178,11.178,0,0,1-3.543-.575l-4.7-1.567V105.9a10.03,10.03,0,0,0,5.589-3.631,18.162,18.162,0,0,0,3.654-7.011l.442-1.77h.273a2.492,2.492,0,0,1,2.489,2.489v1.244A19.7,19.7,0,0,1,54.7,103.53H52.16a1.245,1.245,0,1,0,0,2.489H64.608a1.245,1.245,0,1,1,0,2.489H62.118a1.245,1.245,0,1,0,0,2.489Z" transform="translate(-31 -91)"/></g><g transform="translate(4.979 35.018)"><ellipse class="a" cx="1.245" cy="1.245" rx="1.245" ry="1.245"/></g><g transform="translate(22.405)"><path class="a" d="M302.245,0A1.245,1.245,0,0,0,301,1.245V3.817a1.245,1.245,0,0,0,2.489,0V1.245A1.245,1.245,0,0,0,302.245,0Z" transform="translate(-301 0)"/></g><g transform="translate(14.484 3.364)"><path class="a" d="M209.426,42.666l-1.76-1.76a1.245,1.245,0,0,0-1.76,1.76l1.76,1.76a1.245,1.245,0,0,0,1.76-1.76Z" transform="translate(-205.54 -40.542)"/></g><g transform="translate(28.566 3.364)"><path class="a" d="M379.132,40.906a1.245,1.245,0,0,0-1.76,0l-1.76,1.76a1.245,1.245,0,0,0,1.76,1.76l1.76-1.76A1.245,1.245,0,0,0,379.132,40.906Z" transform="translate(-375.247 -40.542)"/></g></g></svg>