<svg xmlns="http://www.w3.org/2000/svg" viewBox="0 0 37.713 37.714"><defs><style>.a{fill:#fff;}</style></defs><g transform="translate(0)"><path class="a" d="M18.857,37.714A18.857,18.857,0,1,1,37.713,18.857,18.878,18.878,0,0,1,18.857,37.714Zm0-36.142A17.285,17.285,0,1,0,36.142,18.857,17.3,17.3,0,0,0,18.857,1.571Z" transform="translate(0)"/><path class="a" d="M227.758,230.9a3.143,3.143,0,1,1,3.143-3.143A3.146,3.146,0,0,1,227.758,230.9Zm0-4.714a1.571,1.571,0,1,0,1.571,1.571A1.574,1.574,0,0,0,227.758,226.187Z" transform="translate(-208.901 -208.902)"/><path class="a" d="M73.233,71.022a.768.768,0,0,1-.3-.06l-2.9-1.2a.786.786,0,1,1,.6-1.452l2.9,1.2a.786.786,0,0,1-.3,1.512Zm-27.582,0a.786.786,0,0,1-.3-1.512l2.9-1.2a.786.786,0,1,1,.6,1.452l-2.9,1.2A.773.773,0,0,1,45.652,71.02Zm1.917-5.42H44.426a.786.786,0,0,1,0-1.571h3.143a.786.786,0,0,1,0,1.571Zm26.8-.29h0l-3.141,0a.786.786,0,1,1,0-1.571h0l3.141,0a.786.786,0,1,1,0,1.571ZM61.11,63.641a.786.786,0,0,1-.556-1.341l7.777-7.776a.786.786,0,0,1,1.111,1.111l-7.777,7.776A.783.783,0,0,1,61.11,63.641ZM48.554,60.8a.791.791,0,0,1-.3-.06l-2.9-1.2a.786.786,0,1,1,.6-1.452l2.9,1.2a.786.786,0,0,1-.3,1.512Zm21.778,0a.786.786,0,0,1-.3-1.512l2.9-1.2a.786.786,0,0,1,.6,1.452l-2.9,1.2A.788.788,0,0,1,70.332,60.8ZM51.109,56.973a.783.783,0,0,1-.555-.23l-2.22-2.221a.786.786,0,1,1,1.111-1.111l2.22,2.221a.786.786,0,0,1-.556,1.341Zm3.825-2.555a.786.786,0,0,1-.726-.485l-1.2-2.9a.786.786,0,1,1,1.452-.6l1.2,2.9a.786.786,0,0,1-.726,1.086Zm9.02,0a.786.786,0,0,1-.726-1.086l1.2-2.9a.786.786,0,1,1,1.452.6l-1.2,2.9A.786.786,0,0,1,63.954,54.418Zm-4.6-.6a.785.785,0,0,1-.786-.786V49.887a.786.786,0,0,1,1.572,0V53.03A.786.786,0,0,1,59.354,53.815Z" transform="translate(-40.587 -45.666)"/><path class="a" d="M172.159,365.67H158.017a.785.785,0,0,1-.786-.786V360.17a.785.785,0,0,1,.786-.786h14.143a.785.785,0,0,1,.786.786v4.714A.785.785,0,0,1,172.159,365.67ZM158.8,364.1h12.571v-3.143H158.8Z" transform="translate(-146.231 -334.242)"/></g></svg>