<svg xmlns="http://www.w3.org/2000/svg" viewBox="0 0 38.4 38.343"><defs><style>.a{opacity:0.192;}.b,.c{fill:#fff;}.c{stroke:#d0d0d0;stroke-miterlimit:10;}</style></defs><g class="a"><path class="b" d="M-367.829,302.843A19.206,19.206,0,0,1-387,283.671,19.206,19.206,0,0,1-367.829,264.5a19.847,19.847,0,0,1,6.084.976,1.627,1.627,0,0,1,1.033,2.066,1.627,1.627,0,0,1-2.066,1.033,15.018,15.018,0,0,0-5.051-.8,15.911,15.911,0,0,0-15.957,15.9,16,16,0,0,0,15.957,15.957,16,16,0,0,0,15.957-15.957,16.189,16.189,0,0,0-.517-4.075,1.592,1.592,0,0,1,1.148-1.952,1.592,1.592,0,0,1,1.952,1.148,20.42,20.42,0,0,1,.631,4.936A19.194,19.194,0,0,1-367.829,302.843Z" transform="translate(387 -264.5)"/><path class="c" d="M-364.568,300.089h-3.157V288.149a10.828,10.828,0,0,1-4.075,2.411v-2.87a10.3,10.3,0,0,0,2.7-1.55,5.933,5.933,0,0,0,2.009-2.64h2.583v16.589Z" transform="translate(380.525 -272.594)"/><path class="c" d="M-352.945,291.092a3.489,3.489,0,0,1-1.779-1.435,4.08,4.08,0,0,1-.574-2.009,3.987,3.987,0,0,1,1.263-3.042,5.152,5.152,0,0,1,3.674-1.205,5.248,5.248,0,0,1,3.674,1.205,4.038,4.038,0,0,1,1.32,3.042,3.748,3.748,0,0,1-.574,2.066,4.39,4.39,0,0,1-1.665,1.378,4.222,4.222,0,0,1,2.066,1.607,4.3,4.3,0,0,1,.689,2.468,4.973,4.973,0,0,1-1.435,3.731,5.2,5.2,0,0,1-3.9,1.435,5.711,5.711,0,0,1-3.731-1.205,4.514,4.514,0,0,1-1.779-3.846,4.571,4.571,0,0,1,.689-2.468A4.508,4.508,0,0,1-352.945,291.092Zm.344,3.9a3,3,0,0,0,.689,2.066,2.068,2.068,0,0,0,1.665.746,2.084,2.084,0,0,0,1.607-.689,3,3,0,0,0,.631-2.009,2.738,2.738,0,0,0-.631-1.837,2.208,2.208,0,0,0-1.665-.689,2,2,0,0,0-1.722.8A2.214,2.214,0,0,0-352.6,294.995Zm.287-7.06a2.051,2.051,0,0,0,.517,1.492,1.91,1.91,0,0,0,1.435.517,2,2,0,0,0,1.435-.517,2.051,2.051,0,0,0,.517-1.492,2,2,0,0,0-.517-1.435,1.91,1.91,0,0,0-1.435-.517,1.91,1.91,0,0,0-1.435.517A2,2,0,0,0-352.313,287.935Z" transform="translate(373.666 -272.551)"/><path class="b" d="M-329.46,269.816h-2.009v-2.009a1.6,1.6,0,0,0-1.607-1.607,1.6,1.6,0,0,0-1.607,1.607v2.009h-2.009a1.6,1.6,0,0,0-1.607,1.607,1.643,1.643,0,0,0,1.607,1.607h2.009v2.009a1.6,1.6,0,0,0,1.607,1.607,1.6,1.6,0,0,0,1.607-1.607v-2.009h2.009a1.6,1.6,0,0,0,1.607-1.607A1.643,1.643,0,0,0-329.46,269.816Z" transform="translate(366.253 -265.224)"/></g></svg>