<svg xmlns="http://www.w3.org/2000/svg" viewBox="0 0 41.559 41.547"><defs><style>.a{fill:#383C43;}</style></defs><path class="a" d="M24.773,36.127a16.022,16.022,0,0,1-2.361.493,20.718,20.718,0,0,0,2.382-2.3.695.695,0,0,0-1.042-.917A20.544,20.544,0,0,1,20.8,36.127V27.793a20.349,20.349,0,0,1,3.98.514A.695.695,0,0,0,25.1,26.96a21.53,21.53,0,0,0-4.3-.556v-5.6h7.9c0,.431-.042.861-.083,1.292a.695.695,0,0,0,.618.764h.069A.7.7,0,0,0,30,22.237c.042-.479.076-.958.09-1.431h6.681a.695.695,0,1,0,1.389,0v-.695a18,18,0,1,0-13,17.363.7.7,0,1,0-.389-1.347Zm-5.334,0a20.071,20.071,0,0,1-5.9-7.244,20.474,20.474,0,0,1,5.869-1.09Zm0-9.723a21.954,21.954,0,0,0-6.459,1.2,20.085,20.085,0,0,1-1.389-6.771h7.82Zm-15.932-5.6h6.674a21.439,21.439,0,0,0,1.507,7.272A20.96,20.96,0,0,0,7.237,30.62a16.585,16.585,0,0,1-3.73-9.813ZM32.837,9.4a16.543,16.543,0,0,1,3.938,10.015H30.107a21.467,21.467,0,0,0-1.583-7.362A20.835,20.835,0,0,0,32.837,9.4Zm-4.862,1.389a21.4,21.4,0,0,0-5.556-7.126,16.6,16.6,0,0,1,9.494,4.695,19.231,19.231,0,0,1-3.952,2.417Zm-8.563,3.07v5.556H11.571a20.182,20.182,0,0,1,1.445-6.855,20.141,20.141,0,0,0,6.4,1.3ZM13.557,11.3a20.141,20.141,0,0,1,5.855-7.16v8.334a18.752,18.752,0,0,1-5.827-1.153ZM20.8,4.138a20.141,20.141,0,0,1,5.848,7.167A18.7,18.7,0,0,1,20.8,12.472Zm-8.5,6.64A19.446,19.446,0,0,1,8.383,8.361a16.571,16.571,0,0,1,9.459-4.7A21.46,21.46,0,0,0,12.3,10.778Zm-.528,1.278a21.53,21.53,0,0,0-1.59,7.362H3.507A16.585,16.585,0,0,1,7.424,9.4a20.835,20.835,0,0,0,4.348,2.653ZM20.8,13.861a20.141,20.141,0,0,0,6.417-1.292A20.1,20.1,0,0,1,28.7,19.417H20.8ZM8.168,31.689a19.7,19.7,0,0,1,4.077-2.313,21.53,21.53,0,0,0,5.6,7.244A16.606,16.606,0,0,1,8.168,31.689Z" transform="translate(-2.16 -2.178)"/><path class="a" d="M53.029,39.12V37.648a7.348,7.348,0,1,0-14.7,0V39.12A2.084,2.084,0,0,0,37,41.03v9.2a2.084,2.084,0,0,0,2.084,2.084h13.2a2.084,2.084,0,0,0,2.084-2.084v-9.2A2.084,2.084,0,0,0,53.029,39.12Zm-7.348-7.438a5.966,5.966,0,0,1,5.959,5.966v1.3H50.2V37.3a4.514,4.514,0,0,0-9.029,0v1.646H39.722v-1.3A5.966,5.966,0,0,1,45.681,31.682Zm3.125,7.265H42.556V37.3a3.125,3.125,0,0,1,6.251,0Zm4.167,11.286a.7.7,0,0,1-.695.695h-13.2a.7.7,0,0,1-.695-.695v-9.2a.7.7,0,0,1,.695-.695h13.2a.7.7,0,0,1,.695.695Z" transform="translate(-12.803 -10.769)"/></svg>